<?xml version="1.0" encoding="UTF-8" standalone="no"?>
<svg
   xmlns:dc="http://purl.org/dc/elements/1.1/"
   xmlns:cc="http://creativecommons.org/ns#"
   xmlns:rdf="http://www.w3.org/1999/02/22-rdf-syntax-ns#"
   xmlns:svg="http://www.w3.org/2000/svg"
   xmlns="http://www.w3.org/2000/svg"
   xmlns:sodipodi="http://sodipodi.sourceforge.net/DTD/sodipodi-0.dtd"
   xmlns:inkscape="http://www.inkscape.org/namespaces/inkscape"
   inkscape:version="1.0.1 (3bc2e813f5, 2020-09-07)"
   sodipodi:docname="logo.svg"
   id="svg935"
   viewBox="0 0 233 233"
   version="1.1"
   inkscape:export-filename="C:\Users\Frost\Documents\GitHub\SteamSwitcher.ahk\res\logo256.png"
   inkscape:export-xdpi="105.47639"
   inkscape:export-ydpi="105.47639">
  <title
     id="title854">SteamSwitcher logo</title>
  <metadata
     id="metadata939">
    <rdf:RDF>
      <cc:Work
         rdf:about="">
        <dc:format>image/svg+xml</dc:format>
        <dc:type
           rdf:resource="http://purl.org/dc/dcmitype/StillImage" />
        <dc:title>SteamSwitcher logo</dc:title>
        <dc:creator>
          <cc:Agent>
            <dc:title>joedf</dc:title>
          </cc:Agent>
        </dc:creator>
        <dc:description>modified based on steam logo from wikipedia SVG</dc:description>
      </cc:Work>
    </rdf:RDF>
  </metadata>
  <sodipodi:namedview
     inkscape:current-layer="layer1"
     inkscape:window-maximized="1"
     inkscape:window-y="-6"
     inkscape:window-x="-6"
     inkscape:cy="110.00627"
     inkscape:cx="82.612395"
     inkscape:zoom="2.8284271"
     inkscape:guide-bbox="true"
     showguides="true"
     showgrid="false"
     id="namedview937"
     inkscape:window-height="1028"
     inkscape:window-width="1920"
     inkscape:pageshadow="2"
     inkscape:pageopacity="0"
     guidetolerance="10"
     gridtolerance="10"
     objecttolerance="10"
     borderopacity="1"
     bordercolor="#666666"
     pagecolor="#ffffff"
     inkscape:document-rotation="0" />
  <defs
     id="defs929">
    <linearGradient
       y2="100%"
       x1="50%"
       x2="50%"
       id="a">
      <stop
         id="stop914"
         offset="0"
         stop-color="#111D2E" />
      <stop
         id="stop916"
         offset=".21248"
         stop-color="#051839" />
      <stop
         id="stop918"
         offset=".40695"
         stop-color="#0A1B48" />
      <stop
         id="stop920"
         offset=".58110"
         stop-color="#132E62" />
      <stop
         id="stop922"
         offset=".73760"
         stop-color="#144B7E" />
      <stop
         id="stop924"
         offset=".87279"
         stop-color="#136497" />
      <stop
         id="stop926"
         offset="1"
         stop-color="#1387B8" />
    </linearGradient>
    <linearGradient
       gradientUnits="userSpaceOnUse"
       y1="0"
       gradientTransform="scale(0.99946338,1.0005369)"
       id="a-2"
       x2="116.68872"
       x1="116.68872"
       y2="232.87497">
      <stop
         stop-color="#111D2E"
         offset="0"
         id="stop914-5" />
      <stop
         stop-color="#051839"
         offset=".21248"
         id="stop916-7" />
      <stop
         stop-color="#0A1B48"
         offset=".40695"
         id="stop918-6" />
      <stop
         stop-color="#132E62"
         offset=".58110"
         id="stop920-9" />
      <stop
         stop-color="#144B7E"
         offset=".73760"
         id="stop922-0" />
      <stop
         stop-color="#136497"
         offset=".87279"
         id="stop924-8" />
      <stop
         stop-color="#1387B8"
         offset="1"
         id="stop926-3" />
    </linearGradient>
  </defs>
  <g
     style="display:inline"
     inkscape:label="Logo"
     id="layer1"
     inkscape:groupmode="layer">
    <path
       sodipodi:nodetypes="csssccc"
       style="fill:url(#a-2)"
       fill="url(#a)"
       d="m 4.8911,150.01 c 14.393,48.01 58.916,82.99 111.61,82.99 64.34,0 116.5,-52.16 116.5,-116.5 0,-64.341 -52.16,-116.5 -116.5,-116.5 -61.741,0 -112.26,48.029 -116.25,108.76 -1.2661326,13.87919 0.59204651,30.37895 4.6411,41.25 z"
       id="path931" />
    <path
       id="path933"
       style="fill:#ffffff"
       d="M 89.691406 34.068359 C 69.971185 34.559095 52.276281 48.270422 47.640625 68.337891 C 42.148765 92.111815 57.054286 115.92882 80.867188 121.42969 C 81.058159 121.47379 81.248159 121.51709 81.429688 121.54883 L 100.32031 142.20117 L 146.46875 142.20117 L 146.51562 142.20117 L 146.67578 142.20117 L 146.67578 142.20312 A 24.769045 25.630573 0 0 1 156.53516 144.39258 A 24.769045 25.630573 0 0 1 156.58594 144.41602 C 158.15598 145.10779 159.6675 145.9612 161.0918 146.98242 C 170.0986 153.43546 173.52696 164.78813 170.34961 174.80273 A 24.769045 25.630573 0 0 1 146.51562 193.46289 A 24.769045 25.630573 0 0 1 146.30859 193.46094 L 128.40625 193.46094 C 134.57144 197.78255 141.21679 199.319 146.32812 199.52344 C 156.50348 199.59344 166.52269 194.91547 172.86719 186.06641 C 183.26185 171.59159 179.9005 151.35723 165.41211 140.99023 C 161.62307 138.28808 157.41545 136.46428 153.00391 135.56836 L 141.47461 107.79688 L 90.890625 107.79688 L 90.890625 107.79297 C 88.680008 107.79597 86.436011 107.55757 84.191406 107.03906 C 68.334004 103.37607 58.397199 87.501013 62.054688 71.667969 C 65.142593 58.300617 76.938175 49.158249 90.074219 48.828125 C 90.345229 48.821325 90.618543 48.833184 90.890625 48.833984 L 90.890625 48.816406 L 123.8125 48.816406 C 117.92212 42.23593 110.02771 37.33428 100.78516 35.199219 C 97.064379 34.339709 93.343299 33.977482 89.691406 34.068359 z M 159.45898 35.990234 L 159.45898 56.105469 L 90.21875 56.105469 C 80.339861 56.347027 71.49445 63.207432 69.171875 73.261719 C 66.421443 85.168168 73.871945 97.070266 85.810547 99.828125 C 87.28699 100.16919 88.760751 100.33998 90.21875 100.37891 L 90.21875 100.39648 L 90.890625 100.39648 L 159.45898 100.39648 L 159.45898 120.50977 L 204.02539 78.25 L 159.45898 35.990234 z " />
    <path
       id="path1502"
       style="display:inline;opacity:1;fill:#ffffff;stroke-width:2.32541;paint-order:fill markers stroke"
       d="M 78.439453 133.24414 L 33.873047 168.42578 L 78.439453 203.60742 L 78.439453 187.16797 L 145.96875 187.16797 A 18.113256 18.743282 0 0 0 146.32422 187.17188 A 18.113256 18.743282 0 0 0 164.4375 168.42773 A 18.113256 18.743282 0 0 0 146.39062 149.68555 L 146.39062 149.68359 L 78.439453 149.68359 L 78.439453 133.24414 z " />
  </g>
</svg>
