<?xml version="1.0" encoding="UTF-8" standalone="no"?>
<svg
   xmlns:dc="http://purl.org/dc/elements/1.1/"
   xmlns:cc="http://creativecommons.org/ns#"
   xmlns:rdf="http://www.w3.org/1999/02/22-rdf-syntax-ns#"
   xmlns:svg="http://www.w3.org/2000/svg"
   xmlns="http://www.w3.org/2000/svg"
   xmlns:sodipodi="http://sodipodi.sourceforge.net/DTD/sodipodi-0.dtd"
   xmlns:inkscape="http://www.inkscape.org/namespaces/inkscape"
   inkscape:version="1.0 (4035a4fb49, 2020-05-01)"
   sodipodi:docname="Steam_icon_logo-switch.svg"
   id="svg935"
   viewBox="0 0 233 233"
   version="1.1">
  <metadata
     id="metadata939">
    <rdf:RDF>
      <cc:Work
         rdf:about="">
        <dc:format>image/svg+xml</dc:format>
        <dc:type
           rdf:resource="http://purl.org/dc/dcmitype/StillImage" />
        <dc:title></dc:title>
      </cc:Work>
    </rdf:RDF>
  </metadata>
  <sodipodi:namedview
     inkscape:current-layer="layer4"
     inkscape:window-maximized="1"
     inkscape:window-y="-8"
     inkscape:window-x="1912"
     inkscape:cy="69.564267"
     inkscape:cx="252.60127"
     inkscape:zoom="2"
     inkscape:guide-bbox="true"
     showguides="true"
     showgrid="false"
     id="namedview937"
     inkscape:window-height="1027"
     inkscape:window-width="1920"
     inkscape:pageshadow="2"
     inkscape:pageopacity="0"
     guidetolerance="10"
     gridtolerance="10"
     objecttolerance="10"
     borderopacity="1"
     bordercolor="#666666"
     pagecolor="#ffffff">
    <sodipodi:guide
       id="guide1668"
       orientation="0,-1"
       position="146.47266,45.832031" />
    <sodipodi:guide
       id="guide1672"
       orientation="0,-1"
       position="146.39062,83.316406" />
  </sodipodi:namedview>
  <defs
     id="defs929">
    <linearGradient
       y2="100%"
       x1="50%"
       x2="50%"
       id="a">
      <stop
         id="stop914"
         offset="0"
         stop-color="#111D2E" />
      <stop
         id="stop916"
         offset=".21248"
         stop-color="#051839" />
      <stop
         id="stop918"
         offset=".40695"
         stop-color="#0A1B48" />
      <stop
         id="stop920"
         offset=".58110"
         stop-color="#132E62" />
      <stop
         id="stop922"
         offset=".73760"
         stop-color="#144B7E" />
      <stop
         id="stop924"
         offset=".87279"
         stop-color="#136497" />
      <stop
         id="stop926"
         offset="1"
         stop-color="#1387B8" />
    </linearGradient>
    <linearGradient
       gradientUnits="userSpaceOnUse"
       y1="0"
       gradientTransform="scale(0.99946338,1.0005369)"
       id="a-2"
       x2="116.68872"
       x1="116.68872"
       y2="232.87497">
      <stop
         stop-color="#111D2E"
         offset="0"
         id="stop914-5" />
      <stop
         stop-color="#051839"
         offset=".21248"
         id="stop916-7" />
      <stop
         stop-color="#0A1B48"
         offset=".40695"
         id="stop918-6" />
      <stop
         stop-color="#132E62"
         offset=".58110"
         id="stop920-9" />
      <stop
         stop-color="#144B7E"
         offset=".73760"
         id="stop922-0" />
      <stop
         stop-color="#136497"
         offset=".87279"
         id="stop924-8" />
      <stop
         stop-color="#1387B8"
         offset="1"
         id="stop926-3" />
    </linearGradient>
  </defs>
  <g
     sodipodi:insensitive="true"
     style="display:inline"
     inkscape:label="Layer 1"
     id="layer1"
     inkscape:groupmode="layer">
    <path
       sodipodi:nodetypes="csssccc"
       style="fill:url(#a-2)"
       fill="url(#a)"
       d="m 4.8911,150.01 c 14.393,48.01 58.916,82.99 111.61,82.99 64.34,0 116.5,-52.16 116.5,-116.5 0,-64.341 -52.16,-116.5 -116.5,-116.5 -61.741,0 -112.26,48.029 -116.25,108.76 -1.2661326,13.87919 0.59204651,30.37895 4.6411,41.25 z"
       id="path931" />
    <path
       style="fill:#ffffff"
       d="m 89.691406,34.068359 c -19.720221,0.490736 -37.415125,14.202063 -42.050781,34.269532 -5.49186,23.773924 9.413664,47.590929 33.226563,53.091799 0.190971,0.0441 0.380971,0.0874 0.5625,0.11914 l 33.933592,37.09765 c -1.24402,4.45224 -1.49723,9.14925 -0.72266,13.8379 0.33375,2.06511 0.87017,4.0515 1.57813,5.96289 7.53655,16.32855 21.17232,20.71871 30.10937,21.07617 10.17534,0.07 20.19457,-4.60797 26.53907,-13.45703 10.39466,-14.47482 7.03331,-34.70918 -7.45508,-45.07618 -3.78904,-2.70215 -7.99666,-4.52595 -12.4082,-5.42187 L 133.78125,89.263672 c 0.084,-0.319282 0.17182,-0.647218 0.24609,-0.96875 5.49412,-23.783668 -9.43123,-47.59529 -33.24218,-53.095703 -3.720769,-0.85951 -7.441861,-1.221737 -11.093754,-1.13086 z m 0.382813,14.759766 c 2.4326,-0.06113 4.910953,0.181544 7.388672,0.753906 15.870069,3.666042 25.802319,19.538073 22.142579,35.38086 -3.65748,15.833049 -19.544,25.742209 -35.414064,22.076169 C 68.334004,103.37594 58.397199,87.501013 62.054688,71.667969 65.142593,58.300617 76.938175,49.158249 90.074219,48.828125 Z m 0.144531,7.277344 c -9.878889,0.241558 -18.7243,7.101963 -21.046875,17.15625 -2.750432,11.906449 4.70007,23.808547 16.638672,26.566406 C 97.750124,102.58621 109.65777,95.154496 112.4082,83.248047 115.16089,71.331854 107.71888,59.431912 95.779297,56.673828 93.91389,56.242913 92.048174,56.060736 90.21875,56.105469 Z m 56.29687,86.095701 a 24.769045,25.630573 0 0 1 10.01954,2.19141 24.769045,25.630573 0 0 1 0.0508,0.0234 c 1.57004,0.69177 3.08156,1.54518 4.50586,2.5664 9.0068,6.45304 12.43516,17.80571 9.25781,27.82031 a 24.769045,25.630573 0 0 1 -23.83399,18.66016 24.769045,25.630573 0 0 1 -24.63281,-22.94141 l -0.0234,0.0332 c -0.83079,-6.08923 0.56168,-12.47295 4.41015,-17.84766 2.45887,-3.43483 5.67984,-6.12173 9.38086,-7.90625 a 24.769045,25.630573 0 0 1 10.86523,-2.59961 z"
       id="path933" />
    <ellipse
       style="display:inline;opacity:1;fill:#ffffff;stroke-width:2.32541;paint-order:fill markers stroke"
       id="path1502"
       cx="146.32335"
       cy="168.42819"
       rx="18.113256"
       ry="18.743282" />
  </g>
  <g
     inkscape:label="arrows"
     id="layer4"
     inkscape:groupmode="layer">
    <rect
       y="149.68359"
       x="78.440308"
       height="37.484383"
       width="67.950302"
       id="rect1664"
       style="opacity:1;fill:#ffffff;stroke-width:1.62523;paint-order:fill markers stroke" />
    <rect
       style="opacity:1;fill:#ffffff;stroke-width:1.92287;paint-order:fill markers stroke"
       id="rect1664-0"
       width="80.501381"
       height="44.290287"
       x="90.21875"
       y="56.105469" />
    <path
       sodipodi:nodetypes="cccc"
       d="M 159.45884,35.990896 204.02626,78.2504 159.45884,120.51032 Z"
       style="opacity:1;fill:#ffffff;stroke-width:3.6876;paint-order:fill markers stroke"
       id="rect1689" />
    <path
       id="rect1689-0"
       style="opacity:1;fill:#ffffff;stroke-width:3.3646;paint-order:fill markers stroke"
       d="M 78.440308,133.24496 33.872896,168.42561 78.440308,203.6066 Z"
       sodipodi:nodetypes="cccc" />
  </g>
</svg>
